HIERARCHY
ROOT Hips
{
	OFFSET 0.00000 0.00000 0.00000
	CHANNELS 6 Xposition Yposition Zposition Zrotation Yrotation Xrotation 
	JOINT LHipJoint
	{
		OFFSET 0 0 0
		CHANNELS 3 Zrotation Yrotation Xrotation
		JOINT LeftUpLeg
		{
			OFFSET 1.86795 -1.59681 0.65681
			CHANNELS 3 Zrotation Yrotation Xrotation
			JOINT LeftLeg
			{
				OFFSET 2.30491 -6.33268 0.00000
				CHANNELS 3 Zrotation Yrotation Xrotation
				JOINT LeftFoot
				{
					OFFSET 2.46780 -6.78022 0.00000
					CHANNELS 3 Zrotation Yrotation Xrotation
					JOINT LeftToeBase
					{
						OFFSET 0.07897 -0.21698 1.59652
						CHANNELS 3 Zrotation Yrotation Xrotation
						End Site
						{
							OFFSET 0.00000 -0.00000 0.82310
						}
					}
				}
			}
		}
	}
	JOINT RHipJoint
	{
		OFFSET 0 0 0
		CHANNELS 3 Zrotation Yrotation Xrotation
		JOINT RightUpLeg
		{
			OFFSET -1.93650 -1.59681 0.65681
			CHANNELS 3 Zrotation Yrotation Xrotation
			JOINT RightLeg
			{
				OFFSET -2.29410 -6.30299 0.00000
				CHANNELS 3 Zrotation Yrotation Xrotation
				JOINT RightFoot
				{
					OFFSET -2.48738 -6.83403 0.00000
					CHANNELS 3 Zrotation Yrotation Xrotation
					JOINT RightToeBase
					{
						OFFSET -0.08699 -0.23899 1.89395
						CHANNELS 3 Zrotation Yrotation Xrotation
						End Site
						{
							OFFSET -0.00000 -0.00000 0.96904
						}
					}
				}
			}
		}
	}
	JOINT LowerBack
	{
		OFFSET 0 0 0
		CHANNELS 3 Zrotation Yrotation Xrotation
		JOINT Spine
		{
			OFFSET 0.03629 1.99740 -0.07548
			CHANNELS 3 Zrotation Yrotation Xrotation
			JOINT Spine1
			{
				OFFSET 0.03970 1.94298 0.17218
				CHANNELS 3 Zrotation Yrotation Xrotation
				JOINT Neck
				{
					OFFSET 0 0 0
					CHANNELS 3 Zrotation Yrotation Xrotation
					JOINT Neck1
					{
						OFFSET -0.05054 1.79469 0.04241
						CHANNELS 3 Zrotation Yrotation Xrotation
						JOINT Head
						{
							OFFSET 0.05195 1.78475 -0.22133
							CHANNELS 3 Zrotation Yrotation Xrotation
							End Site
							{
								OFFSET 0.02420 1.80711 -0.07950
							}
						}
					}
				}
				JOINT LeftShoulder
				{
					OFFSET 0 0 0
					CHANNELS 3 Zrotation Yrotation Xrotation
					JOINT LeftArm
					{
						OFFSET 2.92134 1.19850 0.36056
						CHANNELS 3 Zrotation Yrotation Xrotation
						JOINT LeftForeArm
						{
							OFFSET 4.84137 -0.00000 0.00000
							CHANNELS 3 Zrotation Yrotation Xrotation
							JOINT LeftHand
							{
								OFFSET 3.24520 -0.00000 -0.00000
								CHANNELS 3 Zrotation Yrotation Xrotation
								JOINT LeftFingerBase
								{
									OFFSET 0 0 0
									CHANNELS 3 Zrotation Yrotation Xrotation
									JOINT LeftHandIndex1
									{
										OFFSET 0.52122 -0.00000 0.00000
										CHANNELS 3 Zrotation Yrotation Xrotation
										End Site
										{
											OFFSET 0.42022 -0.00000 0.00000
										}
									}
								}
								JOINT LThumb
								{
									OFFSET 0 0 0
									CHANNELS 3 Zrotation Yrotation Xrotation
									End Site
									{
										OFFSET 0.42664 -0.00000 0.42664
									}
								}
							}
						}
					}
				}
				JOINT RightShoulder
				{
					OFFSET 0 0 0
					CHANNELS 3 Zrotation Yrotation Xrotation
					JOINT RightArm
					{
						OFFSET -2.84327 1.20795 0.50191
						CHANNELS 3 Zrotation Yrotation Xrotation
						JOINT RightForeArm
						{
							OFFSET -4.72284 -0.00000 0.00000
							CHANNELS 3 Zrotation Yrotation Xrotation
							JOINT RightHand
							{
								OFFSET -3.23459 -0.00000 0.00000
								CHANNELS 3 Zrotation Yrotation Xrotation
								JOINT RightFingerBase
								{
									OFFSET 0 0 0
									CHANNELS 3 Zrotation Yrotation Xrotation
									JOINT RightHandIndex1
									{
										OFFSET -0.30742 -0.00000 0.00000
										CHANNELS 3 Zrotation Yrotation Xrotation
										End Site
										{
											OFFSET -0.24785 -0.00000 0.00000
										}
									}
								}
								JOINT RThumb
								{
									OFFSET 0 0 0
									CHANNELS 3 Zrotation Yrotation Xrotation
									End Site
									{
										OFFSET -0.25163 -0.00000 0.25163
									}
								}
							}
						}
					}
				}
			}
		}
	}
}
MOTION
Frames: 10
Frame Time: 0.0240964
0.00 0.00 0.00 0 0 0 0 0 0 -21 0 0 0 0 0 0 0 0 0 0 0 0 0 0 21 0 0 0 0 0 0 0 0 0 0 0 0 0 0 0 0 0 0 0 0 0 0 -16 0 0 21 0 0 11 0 0 0 -8 0 0 0 0 0 0 0 0 0 0 0 0 0 0 0 0 0 0 0 0 8 0 0 0 0 0 0 0 0 0 0 0 0 0 0 0 0 0
0.00 0.00 0.00 0.2807 -24.0796 9.1748 0.0000 0.0000 0.0000 -16.8046 -11.1695 -37.2576 4.6168 12.9388 39.1399 -0.2003 15.2200 -19.3697 0.1970 2.8582 7.8842 0.0000 0.0000 0.0000 28.0553 27.8625 -17.6318 -3.1000 -10.8552 31.7930 2.6272 -33.7118 -34.8842 -3.6769 -11.7176 34.7400 3.3148 -0.1531 8.8732 0.8124 0.0795 2.9428 -1.0318 0.0326 -1.9187 -2.7748 4.0414 -11.3748 1.8342 5.6660 2.1552 1.3925 2.8570 2.5315 -0.0000 0.0000 0.0000 -73.4596 22.3484 48.0564 32.9945 -43.3258 -13.4183 -0.0000 0.0000 -4.8427 -6.8400 52.7814 -5.4564 -7.1250 0.0000 -0.0000 -75.8635 68.9292 -53.0581 -0.0000 0.0000 0.0000 73.6173 -19.0777 52.9861 -26.8965 38.0803 -9.4352 0.0000 -0.0000 -37.2796 -31.4513 20.0048 -11.8180 7.1250 -0.0000 -0.0000 -1.9221 -6.8797 -1.6790
0.00 0.00 0.00 1.8424 -22.0586 10.8271 0.0000 0.0000 0.0000 -22.7452 -14.6306 -32.2608 3.6889 11.7345 34.7992 0.3102 15.8852 -25.3504 1.5435 7.8424 22.2365 0.0000 0.0000 0.0000 21.9111 8.8864 -34.0349 -6.6097 -14.9942 47.3822 0.5026 -20.2233 -24.4073 -0.7365 -5.4827 15.2906 0.8751 0.1983 11.7124 -0.0012 0.3068 5.1519 -0.5317 0.1448 -1.1830 -1.9779 5.5037 -9.0339 0.5324 7.5364 -15.1876 0.4813 3.8094 -3.5002 0.0000 0.0000 0.0000 -69.9750 21.2621 54.3595 31.0433 -41.7710 -12.0987 -0.0000 -0.0000 6.8031 -23.6503 46.7703 -17.6971 -7.1250 0.0000 -0.0000 -75.2305 61.4925 -41.9530 0.0000 0.0000 0.0000 68.1540 -17.3132 56.3138 -27.4925 38.6448 -9.8051 0.0000 -0.0000 -32.8745 -28.2507 21.7531 -11.2626 7.1250 -0.0000 -0.0000 0.3329 -5.6106 0.2988
0.00 0.00 0.00 1.2899 -13.4034 7.8669 0.0000 0.0000 0.0000 -21.3794 -5.0896 -35.5131 5.4218 13.8436 42.6146 0.8655 12.5912 -26.2499 0.4317 4.2165 11.6866 0.0000 0.0000 0.0000 24.6028 9.8180 -31.7022 -5.3517 -13.7692 42.3207 0.3420 -24.0438 -31.6934 -1.7295 -8.2784 23.5629 3.3795 -0.2727 10.5869 0.6096 -0.1083 6.4855 -1.2569 0.0138 0.8193 -1.9308 3.3089 -9.4250 2.6135 4.7763 -13.2766 1.1867 2.3981 -2.7778 -0.0000 -0.0000 0.0000 -34.8817 12.5681 67.7465 34.4501 -44.4155 -14.4272 -0.0000 -0.0000 3.6624 -69.9839 14.8093 -35.0555 -7.1250 0.0000 -0.0000 -44.2059 11.7644 57.8561 -0.0000 -0.0000 0.0000 27.4889 -13.3635 81.8523 -31.6527 42.2686 -12.5066 0.0000 -0.0000 -47.6085 39.6615 7.0997 5.8507 7.1250 -0.0000 -0.0000 40.7309 -17.2258 38.5343
0.00 0.00 0.00 0.7760 -11.8383 5.6512 0.0000 0.0000 0.0000 -21.0223 -7.0423 -29.2590 4.9387 13.3144 40.5573 1.0152 14.1348 -28.8253 0.5609 4.7969 13.3303 0.0000 0.0000 0.0000 25.8953 10.0560 -25.0940 -4.6581 -12.9881 39.3238 -0.5376 -23.6417 -36.3485 -3.0839 -10.8297 31.7077 3.3755 -0.5736 5.9871 1.1023 -0.6278 4.2689 -0.7275 -0.2638 1.0207 -1.3985 4.5302 -8.7899 1.7518 6.1893 -5.9894 0.8899 3.1240 -0.5078 -0.0000 -0.0000 0.0000 -7.7764 11.7744 41.2565 18.0757 -28.2540 -4.5850 -0.0000 -0.0000 11.9652 -76.9643 13.4192 -45.0680 -7.1250 0.0000 -0.0000 -42.6052 2.2949 64.5777 -0.0000 -0.0000 0.0000 0.0681 -13.1508 55.7200 -15.1374 24.3372 -3.2824 0.0000 -0.0000 -39.9780 49.4011 2.2029 2.5679 7.1250 -0.0000 -0.0000 43.1760 -14.5089 48.9314
0.00 0.00 0.00 1.1015 -14.7994 6.3820 0.0000 0.0000 0.0000 -21.7887 -8.0011 -25.2971 4.1843 12.4017 37.1684 1.0829 15.8153 -30.9112 1.2573 7.1082 20.0364 0.0000 0.0000 0.0000 25.5937 14.5562 -20.3182 -3.9471 -12.0897 36.0501 -0.0428 -26.4681 -37.3533 -2.9194 -10.5635 30.8214 2.9769 0.7653 2.2577 1.0405 1.0589 1.8102 -0.6188 0.5501 0.6252 -2.3301 5.6168 -7.1242 1.8732 7.7106 -7.7448 1.0229 3.8922 -1.4011 -0.0000 0.0000 0.0000 16.3006 21.1726 9.7211 13.0085 -21.2997 -2.4564 -0.0000 -0.0000 27.0219 -13.3499 60.1330 -11.6287 -7.1250 0.0000 -0.0000 -96.6739 67.9024 -73.4437 -0.0000 0.0000 0.0000 -28.4366 -20.3241 29.4444 -12.8175 21.0193 -2.3874 0.0000 -0.0000 -34.7946 17.6733 -2.8877 -0.9196 7.1250 -0.0000 -0.0000 33.8137 -31.1500 13.6849
0.00 0.00 0.00 1.6178 -5.9826 4.3223 0.0000 0.0000 0.0000 -23.8693 -10.8279 -20.6238 4.0816 12.2683 36.6877 0.9103 13.9237 -27.8745 0.5201 4.6220 12.8336 0.0000 0.0000 0.0000 22.6289 1.6446 -29.4868 -7.7479 -15.9307 51.6496 0.2534 -21.5236 -28.5522 -1.9350 -8.7293 24.9520 2.4813 0.4345 6.2279 0.4093 0.7055 3.4013 -1.0137 0.3787 0.0369 -3.1156 4.6087 -7.9386 3.0034 6.6220 -12.4539 1.4873 3.3693 -2.8722 0.0000 -0.0000 0.0000 -8.4939 33.7259 4.0782 10.4381 -17.4219 -1.6036 -0.0000 -0.0000 34.0158 1.9005 75.3305 1.8385 -7.1250 0.0000 -0.0000 -120.9002 -69.5155 140.9236 0.0000 -0.0000 0.0000 -4.9013 -31.9342 24.9014 -8.7219 14.7161 -1.1284 0.0000 -0.0000 -16.8158 -34.4441 5.3490 -3.6583 7.1250 -0.0000 -0.0000 -5.7330 -23.5088 -2.9847
0.00 0.00 0.00 2.8327 -1.3191 6.7302 0.0000 0.0000 0.0000 -24.1194 -12.9801 -23.0696 3.9128 12.0434 35.8858 0.8009 12.5762 -25.7293 0.4032 4.0764 11.2918 0.0000 0.0000 0.0000 16.3141 4.6175 -40.2251 -8.4571 -16.4454 54.1928 0.5361 -21.3735 -26.0387 -1.1580 -6.8320 19.2187 1.2584 -0.1311 11.2300 -1.1579 -0.0708 5.4342 -1.8995 0.0000 -0.6332 -2.0853 5.0297 -10.9467 2.1412 7.3099 -18.2972 1.0415 3.7158 -4.3934 0.0000 -0.0000 0.0000 -51.1868 36.7276 25.0131 14.5959 -23.5802 -3.0625 -0.0000 -0.0000 11.2340 -5.8430 67.7527 -5.4107 -7.1250 0.0000 -0.0000 -96.7362 -70.6689 117.5051 0.0000 -0.0000 0.0000 46.2275 -27.1844 -3.9990 -4.6927 8.0652 -0.3310 0.0000 0.0000 0.8694 -31.0535 11.8226 -7.0328 7.1250 -0.0000 -0.0000 -2.6735 -16.2591 -1.8200
0.00 0.00 0.00 -1.1529 20.2018 0.8257 0.0000 0.0000 0.0000 -13.5360 -3.1245 -32.6747 9.0747 16.8556 56.3483 0.2672 8.4585 -16.2548 0.0110 0.6758 1.8571 0.0000 0.0000 0.0000 22.3500 11.3126 -22.1236 -4.5397 -12.8458 38.7941 0.1171 -22.5008 -30.9436 -1.5982 -7.9736 22.6339 1.5645 -2.0512 10.6825 -1.3653 -2.5123 7.4789 -2.0639 -1.1428 1.6826 5.2317 9.1294 -9.6513 -0.9242 11.9482 -13.2435 -1.0067 5.8213 -2.2661 -0.0000 0.0000 0.0000 -10.8939 43.0110 14.5139 11.1930 -18.5835 -1.8370 -0.0000 -0.0000 16.5179 -39.6703 47.0384 -31.2544 -7.1250 0.0000 -0.0000 -86.6669 57.2024 -46.0316 -0.0000 0.0000 0.0000 4.1821 -19.3073 40.7492 -8.4301 14.2476 -1.0555 0.0000 -0.0000 -12.4743 3.7705 2.7607 0.1819 7.1250 -0.0000 -0.0000 22.7566 -26.9246 10.8024
0.00 0.00 0.00 -4.0347 26.8839 0.3963 0.0000 0.0000 0.0000 -18.1803 0.5467 -49.3680 8.8635 16.7191 55.6168 0.5712 6.3379 -17.9829 0.0963 2.0011 5.5086 0.0000 0.0000 0.0000 28.9360 6.0572 -24.6019 -4.8965 -13.2663 40.3738 0.6296 -24.7745 -30.8919 -1.4527 -7.6184 21.5608 2.3637 -2.1856 12.7497 -1.5169 -2.5189 8.7671 -2.6313 -1.0710 1.8968 7.6808 9.9429 -10.4172 -2.1390 13.0172 -18.4170 -1.9324 6.2116 -3.7156 0.0000 -0.0000 0.0000 12.4448 42.0681 -6.7877 11.0996 -18.4407 -1.8073 -0.0000 -0.0000 37.3229 46.4404 76.0890 45.5882 -7.1250 0.0000 -0.0000 -148.0916 -68.4285 161.3539 0.0000 -0.0000 0.0000 -14.1454 -32.2305 8.5477 -8.4786 14.3256 -1.0674 0.0000 -0.0000 -5.3966 -45.1473 5.1246 -5.1304 7.1250 -0.0000 -0.0000 -13.4870 -22.7794 -7.4145
